<?xml version="1.0" standalone="no"?>
<!DOCTYPE svg PUBLIC "-//W3C//DTD SVG 20010904//EN"
 "http://www.w3.org/TR/2001/REC-SVG-20010904/DTD/svg10.dtd">
<svg version="1.0" xmlns="http://www.w3.org/2000/svg"
 width="533.000000pt" height="533.000000pt" viewBox="0 0 533.000000 533.000000"
 preserveAspectRatio="xMidYMid meet">
<metadata>
Created by potrace 1.14, written by Peter Selinger 2001-2017
</metadata>
<g transform="translate(0.000000,533.000000) scale(0.100000,-0.100000)"
fill="#000000" stroke="none">
<path d="M3687 4437 c-1 -5 -14 -11 -27 -12 -14 -1 -26 -4 -27 -5 -3 -3 -19
-7 -34 -9 -5 0 -8 -5 -5 -9 2 -4 -18 -7 -45 -6 -27 1 -52 -2 -55 -7 -3 -5 -13
-3 -24 3 -14 9 -22 9 -32 0 -10 -8 -18 -8 -25 -1 -8 8 -17 7 -33 -1 -18 -10
-21 -9 -15 1 6 8 4 10 -6 3 -8 -5 -22 -7 -33 -5 -11 1 -16 -2 -12 -8 5 -8 0
-8 -18 -1 -14 5 -26 6 -26 1 0 -5 -14 -7 -32 -5 -17 2 -38 -2 -46 -9 -13 -10
-14 -9 -8 1 6 9 1 12 -16 10 -12 -2 -29 -7 -37 -12 -10 -7 -12 -6 -6 4 6 10 4
12 -11 6 -35 -14 -54 -15 -54 -3 0 8 -2 9 -8 1 -4 -6 -14 -11 -22 -12 -8 0
-41 -1 -72 -2 -35 -2 -58 -7 -58 -14 0 -6 -5 -4 -10 4 -7 11 -14 12 -27 5 -17
-10 -103 -11 -188 -2 -22 2 -63 -1 -91 -8 -28 -6 -60 -11 -72 -10 -12 1 -22
-2 -22 -7 0 -5 -11 -6 -25 -4 -14 3 -25 0 -25 -6 0 -6 -3 -8 -6 -5 -4 3 -15 2
-26 -4 -11 -6 -32 -11 -48 -11 -17 -1 -27 -5 -23 -11 3 -6 1 -7 -6 -3 -6 4
-26 -2 -45 -13 -18 -11 -36 -18 -39 -14 -4 3 -9 -2 -13 -11 -3 -9 -10 -13 -15
-10 -5 3 -9 1 -9 -4 0 -5 -10 -9 -22 -8 -13 1 -29 -4 -36 -11 -7 -7 -27 -13
-43 -13 -16 0 -29 -4 -29 -10 0 -5 -8 -10 -18 -10 -10 0 -23 -5 -30 -12 -7 -7
-12 -9 -12 -5 0 4 -16 1 -35 -7 -19 -8 -35 -13 -35 -10 0 2 -20 -6 -44 -20
-24 -13 -47 -22 -50 -19 -3 4 -6 1 -6 -6 0 -6 -8 -11 -17 -9 -10 2 -17 -3 -15
-9 1 -7 -5 -13 -13 -13 -8 0 -23 -8 -33 -17 -9 -10 -22 -18 -27 -19 -23 -3
-55 -17 -55 -25 0 -5 -9 -9 -21 -9 -13 0 -18 -4 -13 -12 5 -7 3 -8 -6 -3 -7 4
-15 4 -19 -1 -9 -13 -49 -34 -65 -34 -8 0 -16 -7 -20 -15 -3 -8 -9 -15 -13
-14 -17 2 -53 -14 -53 -24 0 -6 -3 -8 -6 -4 -3 3 -27 -5 -52 -18 -26 -13 -50
-22 -54 -19 -7 4 -130 -110 -129 -120 3 -21 -1 -26 -16 -26 -14 0 -15 -2 -5
-9 11 -7 10 -9 -3 -15 -9 -3 -13 -10 -10 -16 3 -6 0 -12 -7 -15 -8 -3 -14 -14
-15 -25 -2 -24 -34 -93 -47 -102 -6 -4 -8 -8 -4 -8 7 0 1 -8 -47 -61 -8 -9
-15 -21 -15 -28 0 -7 -4 -9 -10 -6 -5 3 -15 -3 -22 -15 -7 -11 -18 -20 -25
-20 -7 0 -13 -5 -13 -11 0 -5 -4 -8 -9 -5 -4 3 -19 -8 -31 -24 -13 -17 -25
-28 -28 -25 -3 2 -34 -25 -69 -62 -35 -36 -61 -68 -59 -71 3 -3 -2 -12 -12
-21 -10 -9 -33 -36 -52 -61 -32 -41 -180 -192 -180 -184 0 2 -20 -16 -44 -40
-25 -24 -47 -42 -50 -39 -2 2 -7 -5 -11 -16 -3 -11 -15 -23 -26 -26 -10 -4
-17 -11 -14 -16 4 -5 1 -9 -6 -9 -6 0 -9 -8 -6 -20 3 -11 1 -18 -4 -14 -5 3
-9 0 -9 -6 0 -6 -4 -8 -10 -5 -5 3 -10 -1 -10 -9 0 -9 -4 -16 -9 -16 -5 0 -12
-13 -15 -30 -3 -16 -8 -43 -11 -59 -4 -15 -15 -38 -26 -50 -11 -11 -16 -21
-12 -21 4 0 2 -4 -5 -9 -7 -4 -14 -17 -15 -29 0 -12 -7 -24 -15 -27 -7 -3 -11
-9 -7 -14 3 -6 -1 -26 -9 -45 -8 -19 -12 -37 -8 -40 3 -3 0 -6 -7 -6 -8 0 -11
-7 -7 -15 3 -8 1 -15 -4 -15 -6 0 -10 -9 -10 -20 0 -11 -5 -20 -11 -20 -5 0
-7 -4 -4 -10 3 -5 2 -10 -3 -10 -5 0 -9 -6 -10 -12 -2 -23 -7 -43 -15 -55 -5
-7 -5 -17 -2 -23 3 -5 2 -10 -3 -10 -5 0 -9 -6 -9 -12 -1 -24 -15 -103 -19
-110 -3 -5 1 -8 8 -8 9 0 10 -2 1 -8 -6 -4 -14 -27 -18 -52 -9 -57 -10 -59
-23 -93 -7 -16 -12 -32 -12 -36 0 -4 -10 -37 -21 -72 -12 -35 -23 -77 -25 -94
-2 -16 -5 -37 -6 -45 -1 -8 5 -35 12 -60 7 -25 14 -54 16 -65 5 -42 21 -81 43
-107 84 -98 136 -140 201 -159 25 -7 51 -19 58 -26 8 -7 18 -11 23 -7 5 3 16
-2 25 -10 9 -9 20 -14 25 -11 5 4 9 0 9 -7 0 -10 126 -56 197 -71 7 -2 16 -6
19 -10 4 -4 20 -7 36 -7 15 0 28 -4 28 -10 0 -5 3 -9 8 -9 4 1 9 0 12 -1 3 -1
13 -3 23 -6 9 -2 25 -6 35 -8 9 -3 17 -5 17 -6 0 -1 7 -3 15 -5 8 -2 29 -8 45
-15 17 -7 45 -14 64 -16 19 -2 37 -7 40 -11 6 -8 14 -10 49 -16 9 -1 22 -5 27
-9 8 -5 115 -30 137 -32 3 -1 10 -4 14 -9 4 -4 18 -7 30 -7 13 0 25 -4 28 -9
3 -4 27 -11 54 -15 27 -3 52 -9 56 -13 9 -10 25 -11 156 -18 63 -3 129 -8 145
-10 134 -21 331 -25 479 -10 34 3 86 8 116 11 92 8 95 9 100 16 3 4 24 10 45
14 22 3 45 7 50 7 6 1 12 5 15 9 3 4 19 9 35 12 85 15 332 70 383 85 17 5 32
7 32 4 0 -3 6 -1 13 4 6 5 24 10 38 11 54 6 381 100 410 118 8 5 16 9 19 9 16
2 91 43 122 68 29 23 50 31 95 34 63 4 245 39 413 80 149 36 192 43 275 49 28
1 61 5 75 9 14 3 48 8 75 11 84 9 103 12 112 17 4 2 37 8 72 11 36 4 67 9 71
11 3 2 37 7 75 10 39 4 93 11 120 16 28 5 70 12 95 16 25 3 56 13 69 21 26 17
68 79 73 108 2 10 5 21 8 24 5 5 32 58 35 70 6 20 30 60 36 60 9 0 16 36 23
115 2 28 7 64 11 80 11 52 9 248 -3 271 -6 12 -8 24 -5 28 3 3 1 6 -6 6 -7 0
-9 5 -6 10 3 6 1 10 -5 10 -6 0 -8 5 -5 10 3 6 2 10 -3 10 -6 0 -13 12 -17 28
-3 15 -12 34 -20 42 -7 8 -18 32 -25 52 -6 21 -20 44 -31 51 -10 8 -16 17 -12
20 3 4 2 7 -4 7 -5 0 -10 6 -10 13 0 6 -6 46 -13 87 -7 41 -14 84 -16 95 -6
45 -12 81 -18 105 -4 14 -9 111 -12 215 -5 218 -10 279 -29 389 -8 43 -12 83
-9 87 3 5 0 9 -6 9 -6 0 -8 5 -5 10 3 6 1 10 -4 10 -6 0 -10 3 -9 8 5 15 -30
52 -60 63 -18 6 -29 15 -26 21 3 5 0 9 -7 8 -25 -4 -59 12 -59 26 0 8 -3 13
-7 12 -10 -3 -63 49 -57 55 8 7 -36 75 -52 81 -8 3 -13 10 -9 15 3 5 -3 12
-13 15 -10 4 -25 17 -32 31 -7 13 -16 23 -21 22 -9 -3 -47 23 -68 46 -8 9 -19
17 -23 17 -4 0 -26 18 -48 40 -22 22 -38 40 -34 40 7 0 -41 66 -67 92 -9 9
-20 14 -25 10 -4 -4 -4 -2 -1 5 4 6 0 18 -8 26 -8 9 -15 20 -15 26 0 5 -9 12
-20 16 -11 3 -19 9 -17 13 3 10 -113 126 -139 140 -12 6 -39 12 -60 14 -21 1
-42 6 -46 12 -4 6 -11 6 -20 0 -15 -12 -28 -12 -45 -1 -8 5 -13 3 -13 -5 0
-10 -2 -10 -8 -1 -9 14 -92 24 -92 10 0 -5 -7 -4 -15 3 -8 6 -19 9 -24 6 -5
-4 -12 -2 -16 4 -3 5 -11 10 -16 10 -6 0 -7 -5 -3 -12 5 -7 3 -8 -7 -3 -22 14
-60 15 -52 2 5 -8 2 -8 -9 1 -19 15 -76 22 -81 9z"/>
</g>
</svg>
